<svg width="217" height="198" viewBox="0 0 217 198" fill="none" xmlns="http://www.w3.org/2000/svg">
<path d="M127.196 181.922L127.836 180.818C128.049 180.957 128.348 181.09 128.732 181.218C129.116 181.346 129.564 181.41 130.076 181.41C130.609 181.41 131.03 181.357 131.34 181.25C131.66 181.144 131.889 180.989 132.028 180.786C132.177 180.573 132.252 180.328 132.252 180.05C132.252 179.837 132.204 179.576 132.108 179.266C132.022 178.946 131.83 178.52 131.532 177.986C131.233 177.442 130.774 176.733 130.156 175.858L131.26 175.138C131.825 175.917 132.273 176.621 132.604 177.25C132.945 177.88 133.185 178.434 133.324 178.914C133.473 179.384 133.548 179.789 133.548 180.13C133.548 180.557 133.441 180.973 133.228 181.378C133.014 181.773 132.657 182.098 132.156 182.354C131.654 182.61 130.961 182.738 130.076 182.738C129.692 182.738 129.318 182.706 128.956 182.642C128.604 182.578 128.278 182.488 127.98 182.37C127.681 182.242 127.42 182.093 127.196 181.922ZM139.301 181.41C139.834 181.41 140.255 181.357 140.565 181.25C140.885 181.144 141.114 180.989 141.253 180.786C141.402 180.573 141.477 180.328 141.477 180.05C141.477 179.837 141.418 179.581 141.301 179.282C141.194 178.984 141.045 178.653 140.853 178.29C140.661 177.917 140.437 177.528 140.181 177.122C139.935 176.706 139.669 176.285 139.381 175.858L140.485 175.138C140.901 175.768 141.263 176.365 141.573 176.93C141.882 177.485 142.143 178.008 142.357 178.498C142.57 178.978 142.741 179.432 142.869 179.858C143.018 180.328 143.183 180.674 143.365 180.898C143.557 181.122 143.754 181.266 143.957 181.33C144.159 181.384 144.346 181.41 144.517 181.41C144.741 181.41 144.906 181.474 145.013 181.602C145.119 181.72 145.173 181.864 145.173 182.034C145.173 182.205 145.098 182.365 144.949 182.514C144.799 182.653 144.607 182.722 144.373 182.722C144.021 182.722 143.674 182.658 143.333 182.53C143.002 182.392 142.714 182.173 142.469 181.874C142.223 181.565 142.053 181.154 141.957 180.642L142.597 180.13C142.597 180.557 142.506 180.973 142.325 181.378C142.143 181.773 141.813 182.098 141.333 182.354C140.863 182.61 140.186 182.738 139.301 182.738C138.917 182.738 138.543 182.706 138.181 182.642C137.829 182.578 137.503 182.488 137.205 182.37C136.906 182.242 136.645 182.093 136.421 181.922L137.061 180.818C137.274 180.957 137.573 181.09 137.957 181.218C138.341 181.346 138.789 181.41 139.301 181.41ZM145.976 182.722L146.136 181.41C146.435 181.41 146.686 181.346 146.888 181.218C147.091 181.09 147.288 180.877 147.48 180.578C147.672 180.28 147.88 179.88 148.104 179.378C148.414 178.696 148.718 178.178 149.016 177.826C149.326 177.474 149.63 177.234 149.928 177.106C150.238 176.978 150.542 176.914 150.84 176.914C151.203 176.914 151.539 177.01 151.848 177.202C152.158 177.384 152.43 177.629 152.664 177.938C152.899 178.248 153.08 178.589 153.208 178.962C153.347 179.325 153.416 179.688 153.416 180.05C153.416 180.69 153.304 181.202 153.08 181.586C152.856 181.96 152.568 182.232 152.216 182.402C151.875 182.562 151.518 182.642 151.144 182.642C150.814 182.642 150.387 182.578 149.864 182.45C149.352 182.322 148.702 181.997 147.912 181.474L148.536 180.466C149.059 180.797 149.528 181.026 149.944 181.154C150.371 181.272 150.723 181.33 151 181.33C151.31 181.33 151.555 181.288 151.736 181.202C151.918 181.106 152.051 180.973 152.136 180.802C152.222 180.632 152.264 180.44 152.264 180.226C152.264 179.917 152.19 179.608 152.04 179.298C151.891 178.989 151.699 178.733 151.464 178.53C151.24 178.328 151 178.226 150.744 178.226C150.552 178.226 150.366 178.28 150.184 178.386C150.003 178.493 149.816 178.69 149.624 178.978C149.432 179.266 149.214 179.682 148.968 180.226C148.712 180.802 148.467 181.261 148.232 181.602C148.008 181.933 147.779 182.178 147.544 182.338C147.31 182.498 147.064 182.6 146.808 182.642C146.563 182.696 146.286 182.722 145.976 182.722Z" fill="#0F5C5C"/>
<path d="M47.7965 171.767H48.7965L52.6715 176.221L56.5309 171.767H57.5309V182.642H55.9684V174.361L55.5075 174.986L52.6715 178.291L49.8356 174.994L49.359 174.369V182.642H47.7965V171.767ZM61.834 181.205C61.6621 180.908 61.5241 180.559 61.42 180.158C61.321 179.757 61.2715 179.234 61.2715 178.588C61.2715 177.942 61.4095 177.348 61.6856 176.807C61.9668 176.26 62.3314 175.812 62.7793 175.463C63.6491 174.791 64.7299 174.455 66.0215 174.455C66.6934 174.455 67.2012 174.471 67.545 174.502C67.545 174.502 67.7976 174.528 68.3028 174.58V182.642H66.8965L66.834 181.713C66.5215 182.129 66.045 182.439 65.4043 182.642C65.1595 182.721 64.9069 182.76 64.6465 182.76C64.3913 182.76 64.1387 182.734 63.8887 182.682C63.6387 182.629 63.3887 182.543 63.1387 182.424C62.8939 182.304 62.6595 182.145 62.4356 181.947C62.2116 181.744 62.0111 181.497 61.834 181.205ZM66.7403 175.728C66.4069 175.687 66.0736 175.666 65.7403 175.666C65.4121 175.666 65.0606 175.726 64.6856 175.846C64.3106 175.96 63.9903 176.142 63.7246 176.392C63.1726 176.913 62.8965 177.708 62.8965 178.775C62.8965 179.786 63.1335 180.533 63.6075 181.017C63.9668 181.377 64.3991 181.557 64.9043 181.557C65.5554 181.557 66.0918 181.32 66.5137 180.846C66.6179 180.726 66.6934 180.619 66.7403 180.525V175.728ZM73.6215 175.463C74.0746 175.114 74.5825 174.859 75.145 174.697C75.7127 174.536 76.2075 174.455 76.6293 174.455C77.0512 174.455 77.3767 174.465 77.6059 174.486V171.017H79.1606V182.642H77.7621L77.6996 181.713C77.3819 182.135 76.9002 182.447 76.2543 182.65C76.0043 182.728 75.7491 182.767 75.4887 182.767C75.2335 182.767 74.9809 182.741 74.7309 182.689C74.4809 182.637 74.2309 182.551 73.9809 182.432C73.7361 182.307 73.5017 182.145 73.2778 181.947C73.0538 181.744 72.8533 181.497 72.6762 181.205C72.3012 180.564 72.1137 179.807 72.1137 178.932C72.1137 178.057 72.2517 177.348 72.5278 176.807C72.809 176.26 73.1736 175.812 73.6215 175.463ZM74.5668 176.392C74.3012 176.642 74.0955 176.965 73.9496 177.361C73.809 177.752 73.7387 178.228 73.7387 178.791C73.7387 179.348 73.8064 179.809 73.9418 180.174C74.0773 180.533 74.2465 180.814 74.4496 181.017C74.809 181.382 75.2413 181.564 75.7465 181.564C76.3976 181.564 76.9366 181.325 77.3637 180.846C77.4731 180.726 77.5512 180.619 77.5981 180.525V175.721L77.4418 175.705C77.2023 175.674 76.9158 175.658 76.5825 175.658C76.2543 175.658 75.9028 175.718 75.5278 175.838C75.1528 175.952 74.8325 176.137 74.5668 176.392ZM83.6903 181.205C83.5184 180.908 83.3804 180.559 83.2762 180.158C83.1772 179.757 83.1278 179.234 83.1278 178.588C83.1278 177.942 83.2658 177.348 83.5418 176.807C83.8231 176.26 84.1877 175.812 84.6356 175.463C85.5054 174.791 86.5861 174.455 87.8778 174.455C88.5496 174.455 89.0575 174.471 89.4012 174.502C89.4012 174.502 89.6538 174.528 90.159 174.58V182.642H88.7528L88.6903 181.713C88.3778 182.129 87.9012 182.439 87.2606 182.642C87.0158 182.721 86.7632 182.76 86.5028 182.76C86.2476 182.76 85.995 182.734 85.745 182.682C85.495 182.629 85.245 182.543 84.995 182.424C84.7502 182.304 84.5158 182.145 84.2918 181.947C84.0679 181.744 83.8674 181.497 83.6903 181.205ZM88.5965 175.728C88.2632 175.687 87.9299 175.666 87.5965 175.666C87.2684 175.666 86.9168 175.726 86.5418 175.846C86.1668 175.96 85.8465 176.142 85.5809 176.392C85.0288 176.913 84.7528 177.708 84.7528 178.775C84.7528 179.786 84.9897 180.533 85.4637 181.017C85.8231 181.377 86.2554 181.557 86.7606 181.557C87.4116 181.557 87.9481 181.32 88.37 180.846C88.4741 180.726 88.5496 180.619 88.5965 180.525V175.728ZM95.4778 175.463C95.9309 175.114 96.4387 174.859 97.0012 174.697C97.5689 174.536 98.0637 174.455 98.4856 174.455C98.9075 174.455 99.233 174.465 99.4621 174.486V171.017H101.017V182.642H99.6184L99.5559 181.713C99.2382 182.135 98.7564 182.447 98.1106 182.65C97.8606 182.728 97.6054 182.767 97.345 182.767C97.0897 182.767 96.8371 182.741 96.5871 182.689C96.3371 182.637 96.0871 182.551 95.8371 182.432C95.5924 182.307 95.358 182.145 95.134 181.947C94.9101 181.744 94.7095 181.497 94.5325 181.205C94.1575 180.564 93.97 179.807 93.97 178.932C93.97 178.057 94.108 177.348 94.384 176.807C94.6653 176.26 95.0299 175.812 95.4778 175.463ZM96.4231 176.392C96.1575 176.642 95.9517 176.965 95.8059 177.361C95.6653 177.752 95.595 178.228 95.595 178.791C95.595 179.348 95.6627 179.809 95.7981 180.174C95.9335 180.533 96.1028 180.814 96.3059 181.017C96.6653 181.382 97.0976 181.564 97.6028 181.564C98.2538 181.564 98.7929 181.325 99.22 180.846C99.3293 180.726 99.4075 180.619 99.4543 180.525V175.721L99.2981 175.705C99.0585 175.674 98.772 175.658 98.4387 175.658C98.1106 175.658 97.759 175.718 97.384 175.838C97.009 175.952 96.6887 176.137 96.4231 176.392ZM112.193 172.017H113.6V183.971H112.193V172.017Z" fill="#0F5C5C"/>
<path d="M94.5857 42.6114L102.098 43.3042L102.126 43.3069L102.152 43.3137L108.174 44.7021L113.433 46.0878L113.466 46.0959L113.497 46.1108L121.009 49.575L120.723 50.2138L113.981 48.1406L107.25 46.7603L100.544 46.0743H95.3237L89.3564 46.7617L82.6467 48.1366L75.9443 50.8836L69.9814 54.3221L65.5077 57.7593L59.5404 63.9502L54.3141 70.8367L51.3326 77.7111L49.095 85.967L48.3482 93.5505V99.7482L49.0936 105.25L50.5828 111.433L54.3053 118.298L58.7906 125.193L63.2746 129.328L63.2863 129.34L67.0131 133.465L72.2101 136.889L78.9287 140.331L84.8916 142.393L91.6101 143.77L97.5774 144.458H105.031L113.98 143.082L121.447 140.328L125.91 138.27L132.623 134.143L140.093 127.254L143.077 123.812L146.06 119.686L148.302 115.551L148.974 115.86L145.218 122.788L145.21 122.803L145.2 122.818L141.444 128.361L141.432 128.377L141.419 128.393L138.414 131.857L138.401 131.872L133.864 136.056L133.848 136.068L126.336 141.611L126.305 141.634L126.268 141.65L120.249 144.426L114.981 146.509L114.957 146.518L114.931 146.525L106.635 148.611L97.5848 149.307L97.5701 149.308H91.5206L85.4873 148.613L85.4506 148.609L78.6411 146.515L72.6312 144.437L72.6136 144.43L68.0622 142.331L68.0373 142.315L62.7786 138.851L62.7669 138.844L62.7566 138.836L58.2492 135.372L58.236 135.361L53.6949 131.173L53.6773 131.15L49.9138 126.29L45.4064 120.055L45.3829 120.021L45.3668 119.984L43.1131 114.441L43.1043 114.414L41.6018 109.564L41.5974 109.551L40.0846 102.575V90.0321L40.0935 89.9942L41.5959 83.7586L41.6003 83.7424L41.6062 83.7248L43.8643 77.477L43.8702 77.4661L47.6263 69.152L47.641 69.1168L47.6645 69.0857L52.9231 62.1572L52.9363 62.141L52.951 62.1261L58.9608 55.8905L58.9814 55.8688L59.0063 55.8499L66.5187 50.3071L66.5495 50.2841L66.5862 50.2679L75.6244 46.1L75.6494 46.0919L80.1568 44.7062L80.1758 44.7008L80.1934 44.6967L86.9545 43.311L86.9766 43.3069L87 43.3042L94.5124 42.6114L94.549 42.6087L94.5857 42.6114Z" fill="#0F5C5C"/>
<path d="M132.486 110.937L130.193 115.167L130.178 115.195L130.158 115.221L127.904 117.992L127.888 118.011L124.849 120.814L124.833 120.826L121.077 123.597L121.068 123.604L118.063 125.683L118.047 125.693L118.031 125.703L114.275 127.781L114.248 127.795L114.22 127.806L102.952 131.963L102.92 131.974L102.886 131.98L99.1298 132.673L96.1425 133.362L96.0985 133.373H88.4922L88.4482 133.362L82.4383 131.976L82.4134 131.971L82.3899 131.963L78.5971 130.564L78.5648 130.543L74.0999 127.798L71.8932 127.12L71.8462 127.105L71.8037 127.079L69.55 125.693L69.5397 125.687L68.0373 124.695L67.9786 124.657L67.939 124.6L67.1877 123.513L67.0263 123.278L68.1004 122.287H70.5565L70.6006 122.298L73.6055 122.991L73.6451 122.999L73.6818 123.017L76.6867 124.402L76.7087 124.412L76.7278 124.424L78.9287 125.777L84.827 127.137H89.2537L92.9732 126.451L95.9371 125.768L98.0382 125.121L98.5987 124.087L98.1497 123.673H96.8644L94.6107 124.366H88.4511L86.8137 123.611L85.1586 122.084V121.105L86.1299 120.209H92.2073L93.6071 119.563L95.8432 118.188L95.8857 118.163L95.9327 118.148L100.471 116.753L100.505 116.749L103.51 116.34L103.526 116.339L106.531 116.053L106.611 116.046L106.688 116.069L108.921 116.755L116.326 118.121L119.216 117.455L126.664 114.707L129.587 112.685L132.486 109.123V110.937Z" fill="#C96E4A"/>
<path d="M147.344 86.3175L149.628 87.7222L152.702 90.5572L154.232 93.38L154.252 93.4138L154.26 93.4503L155.012 96.2217L155.023 96.2623V99.1054L155.019 99.1338L154.268 103.291L154.257 103.342L152.702 106.211L151.094 107.694L148.699 108.43H145.571L143.26 107.72L143.25 107.716L143.24 107.713L139.469 106.322L139.456 106.315L136.451 104.93L136.42 104.916L136.392 104.897L133.72 103.049L131.682 106.184L131.669 106.203L131.653 106.222L128.619 109.72L128.58 109.747L125.576 111.826L120.98 114.651L120.895 114.662L115.636 115.355L115.61 115.359H111.004L110.937 115.335L107.181 113.949L107.134 113.931L107.094 113.904L104.089 111.826L104.069 111.811L101.733 109.656L99.7754 104.241L98.6485 106.84L98.6412 106.853L97.1387 109.624L97.1285 109.644L97.1153 109.662L95.5923 111.769L93.2696 113.911L90.1649 115.343L90.115 115.352L78.8098 117.437H76.1438L80.0497 114.735L84.5571 111.964L90.5669 107.807L94.2747 105.07L96.4843 102.354L97.956 99.6399L99.4511 95.5032L99.4555 95.4937L99.4585 95.4842L100.961 92.02L100.98 91.9767L101.009 91.9401L103.939 88.3379V96.9579L104.669 99.648L106.126 102.336L108.294 104.336L111.217 105.683L115.645 107.045H119.278L123.681 105.69L128.096 102.976L131.047 99.575L135.544 92.6628L135.557 92.6438L135.573 92.6249L138.578 89.1606L138.592 89.1458L140.941 86.9793L141.052 86.959L144.845 86.2593H147.25L147.344 86.3175Z" fill="#0F5C5C"/>
<path d="M74.3735 120.666L72.2168 121.32L71.4979 121.974L73.6546 122.628L75.0923 123.282L77.249 123.936L79.4056 125.244L80.8434 125.898L83.0001 126.344L84.4378 126.552L86.5945 126.344L87.3134 126.552L85.1567 125.898L83.7189 125.244L82.2812 124.59L80.8434 123.936L79.4056 122.628L77.9679 121.974L76.5301 121.32L74.3735 120.666Z" fill="#C96E4A" stroke="#C96E4A" stroke-width="0.5"/>
<path d="M70.3325 83.8173L71.04 80.9343L72.455 81.655L74.5776 83.0965L77.4078 85.2588L80.2379 87.421L83.068 89.5833L85.1906 91.7455L86.6057 93.9078L87.3132 96.7908V98.953L86.6057 102.557L85.1906 106.161L83.7756 108.323L81.653 110.485L78.1153 112.647L74.5776 114.089L71.04 115.53L67.5023 116.251H64.6722L63.2571 115.53L62.5496 114.81L61.1345 112.647L60.427 110.485V107.602L61.1345 103.998L61.8421 101.836L62.5496 99.6738V101.115V103.998L63.2571 106.161L64.6722 107.602L66.7948 108.323H70.3325L73.1626 107.602L77.4078 106.161L80.9454 103.998L83.068 102.557L84.4831 101.115L83.7756 99.6738L81.653 97.5115L79.5304 96.07L76.7002 93.9078L73.1626 91.7455L69.6249 89.5833V87.421L70.3325 83.8173Z" fill="#0F5C5C" stroke="#0F5C5C" stroke-width="0.5"/>
<path d="M120.615 67.6239L120.452 66.9216H119.88L118.41 67.6239L117.152 68.3262L114.734 69.0286L111.794 69.7309L108.854 70.4332L105.412 71.1355L101.503 72.5402L98.5625 73.9448L95.6221 76.7541L93.4169 79.5634L91.9467 82.3727L91.2116 85.182L90.4766 87.9912V90.0982V92.2052L91.2116 97.1214V95.7168L91.9467 93.6098L93.4169 91.5029L95.6221 89.3959L98.5625 87.2889L101.503 85.8843L105.913 85.182L110.324 84.9329L116.204 84.4796L120.615 83.7773L124.29 83.075L127.231 81.6704L130.906 79.5634L134.582 76.7541L136.052 74.6471L138.257 71.8378L139.727 69.7309L141.197 68.3262L142.667 66.9216L141.932 66.2193H140.462L138.992 66.9216L136.787 68.3262L134.582 70.4332L133.111 71.8378L130.171 73.9448L127.966 75.3495L125.761 76.7541L123.555 77.4564H120.452H117.152H114.16H111.794L110.324 76.7541L109.589 76.0518V75.3495L111.794 73.9448L113.999 73.2425L116.204 72.5402L117.675 71.8378L119.145 71.1355L119.88 69.7309L120.615 67.6239Z" fill="#C96E4A" stroke="#C96E4A" stroke-width="0.5"/>
<path d="M137.178 64.7473L137.923 65.3359L136.434 66.5131L134.946 67.6903L132.713 69.4562L131.224 70.6334L128.992 71.8106L125.27 73.5765L127.503 71.8106L129.736 70.0448L131.224 68.279L132.713 66.5131L134.201 65.3359L135.69 64.7473H137.178Z" fill="#C96E4A" stroke="#C96E4A" stroke-width="0.5"/>
<path d="M145.864 45.4539L147.412 44.1459H143.543H141.221H137.351L134.255 44.7999L132.707 45.4539L130.385 46.7619L128.064 48.724L126.516 50.686L125.742 52.6481V54.6101V56.5721V59.1882L124.968 61.1502L124.194 59.8422L123.42 57.8802L121.872 56.5721L120.324 55.2641L118.776 54.6101L117.228 53.9561L114.133 53.3021H111.037L111.811 55.2641L112.585 57.2262L113.359 58.5342L114.133 59.8422L115.68 61.1502L117.228 61.8043L118.776 62.4583L121.098 63.1123L122.646 63.7663L123.42 65.0743L124.194 66.6337V68.3444V69.6524L121.872 73.5765L123.42 72.2685L124.968 70.3064L125.742 68.9984L126.516 67.0364V65.0743V62.4583L127.29 60.4962L128.064 58.5342L128.838 56.5721L129.612 54.6101L130.385 52.6481L132.707 50.686L135.029 49.378L138.125 48.07L136.577 49.378L135.029 50.686L133.481 51.994L131.933 53.9561L131.159 55.9181L130.385 58.5342L129.612 60.4962L132.707 59.8422L135.803 59.1882L138.125 57.8802L139.673 56.5721L141.995 53.9561L142.769 51.994L143.543 49.378L144.317 47.4159L145.864 45.4539Z" fill="#8FB0A1" stroke="#8FB0A1" stroke-width="0.5"/>
<path d="M129.563 87.8017L131.597 86.8207L130.919 88.7828L130.241 90.7448L129.563 91.7258L128.208 92.7068H126.852L127.53 90.7448L128.208 88.7828L129.563 87.8017Z" fill="#C96E4A" stroke="#C96E4A" stroke-width="0.5"/>
<path d="M123.972 88.2922L125.666 86.8207V89.028V90.4995L124.819 91.9711L123.124 92.7068V91.2353V89.7638L123.972 88.2922Z" fill="#C96E4A"/>
<path d="M129.902 91.9711L131.597 92.7068L130.75 93.4426L129.055 94.1784H127.361H125.666L123.972 93.4426L125.666 92.7068L128.208 91.9711H129.902Z" fill="#C96E4A"/>
<path d="M125.666 97.1214L127.361 96.3857L127.823 95.6499H127.361L124.819 94.9141H123.124L121.43 95.6499L120.583 96.3857L122.277 97.1214H123.972H125.666Z" fill="#C96E4A"/>
<path d="M119.735 91.2353L121.43 89.7638V91.9711V93.4426L120.583 94.9141L118.888 96.3857V94.9141V93.4426L119.735 91.2353Z" fill="#C96E4A"/>
<path d="M115.499 94.1784L117.194 92.7068V94.1784V95.6499V97.1214L116.346 98.593H117.194L118.888 97.8572H120.583L122.277 98.593L123.972 99.3287L122.277 100.064L121.43 100.8H119.735H118.888L116.346 100.064H114.652L112.957 101.536H115.499H117.194L118.888 102.272L117.194 103.008L116.346 103.743H114.652H113.805L112.11 103.008L111.263 103.743L110.135 104.479L109.568 105.951L107.874 105.215L108.721 104.479L109.568 103.743L110.416 102.272V100.8V99.3287L111.263 97.8572L112.957 96.3857V98.593V100.064L114.652 98.593V97.1214V95.6499L115.499 94.1784Z" fill="#C96E4A"/>
<path d="M123.972 88.2922L125.666 86.8207V89.028V90.4995L124.819 91.9711L123.124 92.7068V91.2353V89.7638L123.972 88.2922Z" stroke="#C96E4A" stroke-width="0.5"/>
<path d="M129.902 91.9711L131.597 92.7068L130.75 93.4426L129.055 94.1784H127.361H125.666L123.972 93.4426L125.666 92.7068L128.208 91.9711H129.902Z" stroke="#C96E4A" stroke-width="0.5"/>
<path d="M125.666 97.1214L127.361 96.3857L127.823 95.6499H127.361L124.819 94.9141H123.124L121.43 95.6499L120.583 96.3857L122.277 97.1214H123.972H125.666Z" stroke="#C96E4A" stroke-width="0.5"/>
<path d="M119.735 91.2353L121.43 89.7638V91.9711V93.4426L120.583 94.9141L118.888 96.3857V94.9141V93.4426L119.735 91.2353Z" stroke="#C96E4A" stroke-width="0.5"/>
<path d="M115.499 94.1784L117.194 92.7068V94.1784V95.6499V97.1214L116.346 98.593H117.194L118.888 97.8572H120.583L122.277 98.593L123.972 99.3287L122.277 100.064L121.43 100.8H119.735H118.888L116.346 100.064H114.652L112.957 101.536H115.499H117.194L118.888 102.272L117.194 103.008L116.346 103.743H114.652H113.805L112.11 103.008L111.263 103.743L110.135 104.479L109.568 105.951L107.874 105.215L108.721 104.479L109.568 103.743L110.416 102.272V100.8V99.3287L111.263 97.8572L112.957 96.3857V98.593V100.064L114.652 98.593V97.1214V95.6499L115.499 94.1784Z" stroke="#C96E4A" stroke-width="0.5"/>
</svg>
